<svg xmlns="http://www.w3.org/2000/svg" viewBox="0 0 490 490"><g fill="#FFF"><path d="M245 0C156.46 0 84.425 71.987 84.425 160.472c0 85.04 145.93 315.146 152.142 324.9 1.836 2.882 5.017 4.628 8.435 4.628 3.42 0 6.6-1.746 8.435-4.628 6.212-9.754 152.14-239.86 152.14-324.9C405.576 71.987 333.543 0 245.002 0zm0 461.127c-13.206-21.363-40.008-65.587-66.548-114.588-48.43-89.42-74.027-153.76-74.027-186.068C104.425 83.015 167.487 20 245 20c77.515 0 140.576 63.015 140.576 140.472 0 32.31-25.6 96.65-74.027 186.067-26.54 49-53.343 93.224-66.55 114.587z"/><path d="M245 76.07c-41.885 0-75.96 33.15-75.96 73.895 0 40.744 34.075 73.89 75.96 73.89s75.958-33.146 75.958-73.89c0-40.745-34.075-73.894-75.96-73.894zm0 127.785c-30.856 0-55.96-24.175-55.96-53.89 0-29.718 25.104-53.895 55.96-53.895s55.958 24.177 55.958 53.894c0 29.716-25.103 53.89-55.96 53.89z"/></g></svg>